<svg width="956" height="387" viewBox="0 0 956 387" fill="none" xmlns="http://www.w3.org/2000/svg"><g clip-path="url(#clip0)" fill="#E10054"><path d="M153.514 379.867h17.91v5.118h-23.576v-40.392h5.666v35.274zM181.658 384.985h-6.214l17.545-40.392h5.117l17.179 40.392h-6.214l-4.203-9.87h-19.189l-4.021 9.87zm6.031-14.987h15.168l-7.492-18.826-7.676 18.826zM245.805 344.593h13.889l4.569.548c1.411.357 2.764.911 4.021 1.645a11.895 11.895 0 012.924 3.107 10.422 10.422 0 011.096 4.935 8.955 8.955 0 01-2.01 5.666 9.69 9.69 0 01-5.117 3.107 8.398 8.398 0 013.655.914 10.601 10.601 0 012.741 2.01 7.143 7.143 0 011.828 2.924 8.973 8.973 0 01.731 3.839 11.162 11.162 0 01-1.097 5.117 12.06 12.06 0 01-3.289 3.473 17.56 17.56 0 01-4.935 2.193 28.371 28.371 0 01-5.848.731h-13.158v-40.209zm5.482 16.997h7.493c.989.06 1.98-.064 2.924-.365a5.486 5.486 0 002.559-1.097 6.565 6.565 0 001.827-2.01 6.042 6.042 0 00.549-2.742 4.748 4.748 0 00-2.376-4.569 13.152 13.152 0 00-6.397-1.462h-6.579v12.245zm0 18.643h7.128l3.655-.366a8.965 8.965 0 003.107-1.096 5.484 5.484 0 002.375-2.193 6.762 6.762 0 00-1.462-8.591 12.976 12.976 0 00-7.127-1.462h-7.676v13.708zM291.128 379.867h21.017v5.118h-26.683v-40.392h25.769v4.935h-20.103v12.062h19.006v4.935h-19.006v13.342zM324.389 384.985h-6.214l17.545-40.392h5.117l17.179 40.392h-6.214l-4.203-9.87H328.41l-4.021 9.87zm6.031-14.987h15.169l-7.493-18.826-7.676 18.826zM381.043 385.899a16.27 16.27 0 01-6.945-1.28 14.078 14.078 0 01-4.934-3.472 20.467 20.467 0 01-2.924-5.118 23.023 23.023 0 01-.914-6.031v-25.405h5.665v25.039c.003 1.419.187 2.832.549 4.204a10.25 10.25 0 001.644 3.473 7.13 7.13 0 003.107 2.558 10.786 10.786 0 009.504 0 7.127 7.127 0 003.106-2.558 10.233 10.233 0 001.645-3.473c.361-1.372.546-2.785.548-4.204v-25.039h5.666v25.405a23.023 23.023 0 01-.914 6.031 20.498 20.498 0 01-2.924 5.118 14.078 14.078 0 01-4.934 3.472 16.27 16.27 0 01-6.945 1.28zM423.442 384.985h-5.665v-35.457h-12.793v-4.935h31.434v4.935h-12.976v35.457zM450.49 379.867h21.199v5.118h-26.865v-40.392h25.951v4.935H450.49v12.062h19.006v4.935H450.49v13.342zm8.772-38.381h-4.386l5.665-8.225h6.579l-7.858 8.225zM505.316 344.593h12.245c2.035-.05 4.066.196 6.031.731a11.687 11.687 0 014.568 2.01 8.947 8.947 0 012.924 3.473c.616 1.635.926 3.37.914 5.117a11.152 11.152 0 01-1.096 5.118 9.513 9.513 0 01-3.107 3.473 11.706 11.706 0 01-4.569 2.01 20.443 20.443 0 01-5.848.731h-6.397v17.729h-5.665v-40.392zm5.665 17.911h6.031l3.656-.365 3.106-1.28a4.024 4.024 0 001.828-2.01 4.936 4.936 0 00.731-2.925 5.304 5.304 0 00-.731-3.107 4.93 4.93 0 00-1.828-2.01 7.856 7.856 0 00-3.106-1.097l-3.656-.365h-6.031v13.159zM540.588 384.985h-6.214l17.362-40.392h5.117l17.361 40.392h-6.396l-4.021-9.87h-19.189l-4.02 9.87zm6.03-14.987h15.169l-7.676-18.826-7.493 18.826zM588.104 384.985h-5.483v-40.392h12.793c1.902-.008 3.8.176 5.665.548 1.6.481 3.134 1.156 4.569 2.011a11.497 11.497 0 013.107 3.472 11.152 11.152 0 011.096 5.118 10.058 10.058 0 01-2.741 7.31 14.618 14.618 0 01-7.127 3.473l11.33 18.46h-6.761l-10.417-17.912h-6.031v17.912zm0-22.664h6.579l3.655-.365a8.947 8.947 0 003.107-1.097 10.4 10.4 0 002.01-2.01 7.86 7.86 0 00.731-3.107 6.95 6.95 0 00-.731-2.925 6.949 6.949 0 00-2.01-2.01 8.047 8.047 0 00-2.924-1.097l-3.473-.365h-6.944v12.976zM634.158 384.985h-5.666v-35.457h-12.975v-4.935h31.434v4.935h-12.793v35.457zM653.712 384.985h-6.213l17.544-40.392h5.117l17.179 40.392h-6.396l-4.021-9.87h-19.189l-4.021 9.87zm6.031-14.987h15.169l-7.493-18.826-7.676 18.826zM725.17 353a12.988 12.988 0 00-4.752-3.29 16.99 16.99 0 00-6.214-1.096 14.252 14.252 0 00-6.396 1.279 15.157 15.157 0 00-4.934 3.473 15.509 15.509 0 00-2.924 5.117 17.712 17.712 0 00-1.097 6.215 18.813 18.813 0 001.097 6.396 15.524 15.524 0 002.924 5.118 18.464 18.464 0 004.934 3.473 19.187 19.187 0 006.579 1.279 21.906 21.906 0 005.117-.548 18.677 18.677 0 004.204-1.462v-11.332h-8.955v-4.752h14.62v19.556a31.767 31.767 0 01-6.945 2.559 29.984 29.984 0 01-8.224.914 23.228 23.228 0 01-8.772-1.462 21.933 21.933 0 01-11.148-28.33 21.028 21.028 0 014.569-6.762 19.366 19.366 0 016.762-4.204 21.396 21.396 0 018.407-1.462 26.138 26.138 0 018.772 1.279 18.834 18.834 0 016.214 3.839L725.17 353zM747.831 379.867h21.017v5.118h-26.682v-40.392h25.768v4.935h-20.103v12.062h19.007v4.935h-19.007v13.342zm8.59-38.381h-4.204l5.666-8.225h6.396l-7.858 8.225zM785.113 379.867h21.017v5.118h-26.682v-40.392h25.951v4.935h-20.286v12.062h19.007v4.935h-19.007v13.342zM0 68.428h29.058l119.887 180.576h.548V68.428h21.565v217.679h-21.565L22.113 94.564h-.548v191.543H0V68.427zM587.556 68.428h21.565v217.679h-21.565V68.427zM838.843 68.428h117.511v19.556h-95.946v78.408h92.839v19.557h-92.839v80.418h95.946v19.74H838.843V68.427zM359.295 257.594a91.192 91.192 0 01-46.054 12.612c-49.892 0-92.108-42.038-92.108-91.751 0-54.282 43.678-94.126 92.108-94.126 48.43 0 92.291 42.22 92.291 93.212a90.841 90.841 0 01-11.696 44.779 87.737 87.737 0 0014.803 15.901 109.666 109.666 0 0018.275-61.045c0-64.152-53.364-112.586-113.673-112.586-57.202 0-113.49 45.326-113.49 113.865 0 61.045 52.45 111.49 113.49 111.49a113.31 113.31 0 0060.309-17.546 136.368 136.368 0 01-14.255-14.805zM411.746 97.123a85.522 85.522 0 0144.409-12.612c12.976 0 50.988 4.204 74.564 39.662h23.941c-8.407-20.288-43.13-59.4-98.322-59.4a113.3 113.3 0 00-59.761 16.997 133.603 133.603 0 0115.169 15.353z"/><path d="M531.45 228.9c-29.241 39.843-64.33 41.306-75.112 41.306-45.506 0-88.819-39.844-90.464-89.375v-3.838a92.486 92.486 0 0111.879-44.23 65.925 65.925 0 00-9.137-11.149l-6.397-5.849a113.517 113.517 0 00-17.91 61.959v3.29h.183c1.645 62.69 53.182 109.113 112.211 109.113 34.541 0 76.026-18.277 98.87-61.045l-24.123-.182zM932.779 23.65a13.344 13.344 0 005.848-15.536 13.707 13.707 0 00-14.986-8.225 9.685 9.685 0 00-3.107.731 9.322 9.322 0 00-2.741 1.28l-1.462.548c-15.9 8.407-33.627 19.739-47.699 28.146a3.29 3.29 0 002.558 5.85c16.814-2.925 38.562-6.58 54.461-10.236l2.011-.366 2.01-.548a16.64 16.64 0 003.107-1.645zM654.444 68.61h71.639c67.071 0 69.63 48.983 69.63 57.938 0 25.588-15.717 37.651-23.21 43.682a56.657 56.657 0 0135.454 53.552c0 21.019-9.503 40.027-24.489 50.262-18.275 10.966-32.347 12.428-57.385 12.062h-71.639V68.611zm21.382 93.761h44.775c16.813 0 26.316-.913 36.551-6.214 10.234-5.3 17.361-17.546 17.361-30.522a35.822 35.822 0 00-8.955-23.943c-8.406-9.687-21.382-13.525-43.13-13.525h-46.602v74.204zm0 104.179h47.881c17.91 0 28.876-.914 40.389-5.666 11.514-4.752 22.479-20.653 22.479-37.102a40.394 40.394 0 00-25.037-36.737c-10.052-4.021-18.824-4.935-41.486-4.935h-44.226v84.44z"/></g><defs><clipPath id="clip0"><path fill="#fff" d="M0 0h956v387H0z"/></clipPath></defs></svg>